<?xml version="1.0" encoding="UTF-8" standalone="no"?>
<!-- Created with Inkscape (http://www.inkscape.org/) -->

<svg
   width="2823.8159"
   height="477.30222"
   viewBox="0 0 747.13464 126.28621"
   version="1.1"
   id="svg539"
   inkscape:version="1.1 (c68e22c387, 2021-05-23)"
   sodipodi:docname="osdev-wiki.svg"
   xmlns:inkscape="http://www.inkscape.org/namespaces/inkscape"
   xmlns:sodipodi="http://sodipodi.sourceforge.net/DTD/sodipodi-0.dtd"
   xmlns="http://www.w3.org/2000/svg"
   xmlns:svg="http://www.w3.org/2000/svg">
  <sodipodi:namedview
     id="namedview541"
     pagecolor="#ffffff"
     bordercolor="#666666"
     borderopacity="1.0"
     inkscape:pageshadow="2"
     inkscape:pageopacity="0.0"
     inkscape:pagecheckerboard="0"
     inkscape:document-units="px"
     showgrid="false"
     inkscape:zoom="0.53165938"
     inkscape:cx="1789.6797"
     inkscape:cy="701.57701"
     inkscape:window-width="1920"
     inkscape:window-height="1029"
     inkscape:window-x="0"
     inkscape:window-y="27"
     inkscape:window-maximized="1"
     inkscape:current-layer="layer1"
     units="px"
     width="2119px"
     fit-margin-top="0"
     fit-margin-left="0"
     fit-margin-right="0"
     fit-margin-bottom="0" />
  <defs
     id="defs536" />
  <g
     inkscape:label="Layer 1"
     inkscape:groupmode="layer"
     id="layer1">
    <g
       id="g623"
       transform="translate(86.214455,-50.32109)">
      <path
         style="fill:#0065fd;stroke-width:0.352778"
         d="m 394.48388,174.06553 c -0.0937,-0.24674 -5.53385,-16.29712 -12.08917,-35.66752 l -12.16753,-35.46774 2.53142,-7.66433 4.1041,-9.67229 c 0,0 5.67281,16.75334 11.69024,35.28299 6.01747,18.52966 11.36678,35.31747 11.88738,37.30625 0.52059,1.98879 1.06045,3.61598 1.19973,3.61598 0.13927,0 0.75117,-1.78594 1.35974,-3.96875 0.60854,-2.18282 6.15707,-19.20875 12.33001,-37.83542 l 11.22352,-33.86667 h 5.9406 5.9406 l 11.06078,33.16111 c 6.08341,18.23861 11.44524,34.58986 11.91518,36.33611 0.46993,1.74625 1.02863,3.84969 1.24149,4.67431 0.2129,0.82462 0.52194,1.49931 0.68675,1.49931 0.16486,0 0.6471,-1.38907 1.07171,-3.08681 0.4246,-1.69774 5.88701,-18.80306 12.13869,-38.0118 l 11.36668,-34.925 6.27165,-0.0965 6.27161,-0.0964 -0.25047,0.802 c -0.13776,0.4411 -6.87878,20.40762 -14.98008,44.37005 l -14.7296,43.56806 h -6.60301 -6.60305 l -11.4252,-33.16111 c -6.28385,-18.23861 -11.6526,-33.95486 -11.93055,-34.925 -0.27792,-0.97014 -0.68221,-2.43858 -0.89835,-3.2632 -0.37479,-1.42984 -1.07135,-2.0711 -1.07135,-0.98629 0,1.48429 -4.22367,14.38397 -13.69297,41.82032 l -10.53196,30.51528 -6.5441,0.0958 c -5.04084,0.0738 -6.58322,-0.007 -6.71449,-0.35278 z m 123.91407,-44.01666 v -44.45 h 5.82083 5.82083 v 44.45 44.45 h -5.82083 -5.82083 z m 41.275,-17.63889 V 50.32109 h 5.8191 5.8191 l 0.0899,34.66042 0.0899,34.66041 7.23194,0.0767 7.23195,0.0767 13.40555,-17.09393 13.40556,-17.09393 6.96736,-0.004 c 3.83205,-0.002 6.96736,0.0751 6.96736,0.17217 0,0.0971 -6.90562,8.83281 -15.34583,19.41278 -8.44021,10.57997 -15.34584,19.31554 -15.34584,19.41239 0,0.0968 6.9559,10.3714 15.45753,22.83235 8.50166,12.46096 16.12758,23.64847 16.94649,24.86114 l 1.48893,2.20486 h -7.01266 -7.01269 l -14.89241,-22.225 -14.8924,-22.225 h -7.38862 -7.38861 v 22.225 22.225 h -5.82083 -5.82083 v -62.08889 z m 89.25277,17.63889 v -44.45 h 5.99722 5.99722 v 44.45 44.45 h -5.99722 -5.99722 z M 518.04517,57.729423 V 50.32109 h 6.17361 6.17361 v 7.408333 7.408337 h -6.17361 -6.17361 z m 130.52777,0 V 50.32109 h 6.17361 6.17361 v 7.408333 7.408337 h -6.17361 -6.17361 z"
         id="path629"
         sodipodi:nodetypes="ssccsssssscccsssssscccsscccssssscsssccccccccccccccccccccssssscccccccccccccccccccccccccccccccccccccccc" />
      <path
         style="fill:currentColor;stroke-width:0.352778"
         d="m -45.340905,176.45274 c -0.29104,-0.0695 -1.71979,-0.31788 -3.175,-0.55191 -8.32027,-1.33805 -16.93695,-5.73131 -23.33959,-11.8998 -7.00704,-6.75079 -11.19073,-14.15362 -13.40621,-23.72161 -1.01764,-4.39489 -1.2785,-14.21105 -0.49686,-18.69722 2.2644,-12.99638 9.72711,-24.0657 20.89236,-30.9893 12.75333,-7.90837 29.34873,-9.23427 43.58337,-3.48211 10.63803,4.29878 19.8103597,13.20416 24.3278897,23.61986 2.6623,6.13825 3.88885,12.30689 3.87622,19.49461 -0.0391,22.23356 -14.81184,40.62538 -36.5635697,45.52091 -2.25536,0.5076 -14.2681,1.04827 -15.69861,0.70657 z m 9.60459,-10.58962 c 4.80615,-0.40834 10.82264,-2.69449 15.57179,-5.91698 6.30978,-4.28144 11.7733297,-12.27479 13.8586897,-20.27572 1.10011,-4.22082 1.45764,-10.51451 0.85468,-15.04549 -1.87515,-14.09084 -11.7638497,-25.48961 -25.3558497,-29.22784 -2.22912,-0.61308 -3.75903,-0.75191 -8.53668,-0.77467 -5.03966,-0.024 -6.26423,0.0855 -9.12479,0.81558 -6.017,1.53578 -11.63333,4.90894 -16.29685,9.78786 -4.80185,5.02365 -7.73158,10.91805 -8.98556,18.07824 -2.79095,15.93633 5.05572,32.22483 18.88498,39.20239 4.80643,2.42508 11.84442,4.041 15.875,3.64489 0.48507,-0.0477 1.94964,-0.17739 3.25459,-0.28826 z m 81.28036,10.04318 c -8.54904,-1.80137 -15.77085,-5.26685 -21.4992,-10.31666 l -1.69896,-1.49772 3.23296,-4.31558 3.23296,-4.31558 2.00677,1.74543 c 9.51721,8.27782 25.1912,11.36627 34.51486,6.80092 7.16855,-3.5101 9.82126,-11.37258 5.99167,-17.75899 -2.26326,-3.77431 -7.55319,-6.95388 -19.29935,-11.60006 -13.12804,-5.19278 -19.35051,-9.17702 -23.06525,-14.76867 -2.29048,-3.44776 -3.11101,-6.15198 -3.31364,-10.92075 -0.30575,-7.196 1.50297,-11.93634 6.42695,-16.8439 4.58444,-4.56916 10.71642,-7.29075 18.68717,-8.29403 10.78112,-1.35703 23.83539,2.09528 30.59048,8.08989 l 1.454757,1.29099 -2.387087,4.04794 c -3.19457,5.41723 -2.86524,5.11549 -4.25311,3.89693 -3.41401,-2.99755 -9.88065,-5.69277 -15.84999,-6.60611 -10.03586,-1.53552 -18.68932,1.638 -21.64244,7.93704 -0.80663,1.72055 -0.9352,2.45626 -0.93436,5.34648 10e-4,3.76977 0.52321,5.17101 2.91201,7.81512 2.74281,3.03596 6.29349,4.95077 18.11258,9.76773 11.84843,4.82891 16.78352,7.65949 20.75344,11.90335 6.109232,6.53078 7.389445,16.96159 3.11356,25.36836 -3.38655,6.65825 -10.88006,11.6528 -20.11006,13.40371 -4.05876,0.76993 -12.924,0.67811 -16.97672,-0.17584 z m 87.214615,0.17888 c -17.29472,-3.26701 -28.62698,-17.95597 -30.61726,-39.68631 -1.59579,-17.42329 2.82061,-32.07844 12.6648,-42.02628 4.95514,-5.00731 10.45293,-8.07539 17.6615,-9.85611 2.82592,-0.69808 4.21551,-0.82298 8.98722,-0.80779 4.89563,0.0156 6.09203,0.13725 9.01826,0.91707 7.96091,2.12153 15.06263,7.39923 18.75467,13.93769 0.57519,1.01865 1.14971,1.85212 1.27671,1.85216 0.127,4e-5 0.18712,-11.27121 0.13359,-25.04722 l -0.0973,-25.0473 h 5.82996 5.82995 v 62.08889 62.08889 h -5.66911 -5.66911 l 0.11286,-7.76146 c 0.0621,-4.26881 0.008,-7.76131 -0.12004,-7.76111 -0.1281,1.9e-4 -0.7631,0.96067 -1.41112,2.1344 -0.64801,1.17374 -2.05133,3.12762 -3.11848,4.34197 -4.64704,5.28804 -9.61142,8.33744 -16.75694,10.29307 -2.99749,0.82037 -13.17618,1.0259 -16.81015,0.33944 z m 15.85837,-10.80412 c 5.20722,-1.14131 8.40622,-2.94026 12.41777,-6.9831 2.68386,-2.7048 3.67931,-4.0112 4.99347,-6.55326 3.2653,-6.31632 4.65713,-12.60281 4.64724,-20.99028 -0.0155,-13.10352 -3.70351,-23.21943 -10.92366,-29.96225 -4.79059,-4.47389 -10.08238,-6.49289 -17.06221,-6.50982 -4.9186,-0.0119 -7.34796,0.56194 -11.99444,2.83336 -2.83374,1.38526 -3.84747,2.13444 -6.5631,4.85032 -4.9781,4.97857 -7.62656,10.15186 -9.36519,18.2932 -0.99112,4.6411 -1.05006,13.41205 -0.12624,18.78547 2.68983,15.6453 11.70082,25.59119 24.37025,26.89867 3.56037,0.36743 5.52639,0.23188 9.60611,-0.66231 z m 94.26149,10.83618 c -9.99035,-1.7749 -18.28001,-6.0118 -24.87083,-12.71163 -6.14382,-6.24544 -10.35261,-14.57004 -12.04895,-23.83174 -0.86263,-4.70979 -0.86829,-15.20741 -0.0105,-19.57917 3.94859,-20.12538 17.10324,-33.18159 36.28226,-36.01078 6.88901,-1.01623 15.11351,-0.19018 20.742,2.08327 7.57764,3.06074 13.83069,8.88111 17.62408,16.40451 3.42346,6.78977 5.52203,17.96425 4.80691,25.59568 l -0.25178,2.68704 h -33.99969 -33.99968 l 0.19877,2.38125 c 1.4405,17.25703 11.37458,29.10489 27.13275,32.35983 3.64352,0.7526 10.4194,0.75344 14.09515,0.002 7.01982,-1.43553 12.37517,-4.02705 19.23937,-9.31014 l 0.89677,-0.69021 2.6091,4.44498 2.60911,4.44499 -1.3892,1.22225 c -4.48695,3.94769 -12.70462,7.97319 -20.05683,9.82499 -3.04147,0.76606 -4.52942,0.91464 -10.26015,1.02459 -4.56135,0.0875 -7.54808,-0.0216 -9.34861,-0.34147 z m 30.69054,-56.38712 c -0.003,-3.59954 -1.92797,-10.72903 -3.78517,-14.02292 -5.20096,-9.22444 -15.37828,-13.79324 -26.429,-11.86452 -9.73166,1.69851 -16.70672,6.52999 -21.45434,14.86098 -1.47549,2.58914 -3.42099,8.02346 -3.88435,10.85007 l -0.21687,1.32291 h 27.88543 27.88543 v -1.14652 z m 56.68044,54.50416 c -0.0877,-0.14552 -7.6267,-19.87021 -16.75327,-43.83264 -9.12654,-23.96243 -16.70255,-43.8496 -16.83554,-44.19372 -0.2268,-0.58679 0.14792,-0.61967 6.03077,-0.52917 l 6.2726,0.0965 12.64003,33.57366 c 8.0694,21.43347 13.05531,35.1782 13.78849,38.011 0.63165,2.44053 1.23003,4.43769 1.3298,4.43813 0.0997,3.6e-4 0.77166,-1.9847 1.49313,-4.41145 0.7215,-2.42674 6.81129,-19.13518 13.53291,-37.12986 6.72161,-17.99468 12.37555,-33.15416 12.56428,-33.68773 l 0.34318,-0.97014 h 6.13908 c 6.0817,0 6.06774,-0.005 6.07313,-0.034 0.0144,-0.0768 -1.2532,3.7862 -2.86557,8.02525 -1.61234,4.23905 -9.17663,24.17768 -16.80954,44.30806 l -13.878,36.6007 h -6.45297 c -3.54912,0 -6.52477,-0.11907 -6.61251,-0.26459 z"
         id="path625"
         sodipodi:nodetypes="sssssssscsssssssscssssssscccssssssssscsccscssssssssssssssscccccccssssssssssscsssssscssssssscccsscscccsssccccssscccccsssscsscssscsssscsss" />
    </g>
  </g>
</svg>
